<svg width="12" height="21" viewBox="0 0 12 21" fill="none" xmlns="http://www.w3.org/2000/svg">
<path fill-rule="evenodd" clip-rule="evenodd" d="M9.5372 20.583L0.292206 11.446C0.105305 11.2626 0 11.0118 0 10.75C0 10.4882 0.105305 10.2374 0.292206 10.054L9.5372 0.917007C10.1037 0.360352 11.0117 0.360352 11.5782 0.917007C11.8482 1.18295 12.0001 1.54605 12.0001 1.925C12.0001 2.30394 11.8482 2.66705 11.5782 2.933L3.6692 10.75L11.5782 18.565C11.848 18.8313 11.9998 19.1945 11.9998 19.5735C11.9998 19.9525 11.848 20.3158 11.5782 20.582C11.0117 21.1386 10.1037 21.1386 9.53721 20.582" fill="white"/>
</svg>
