<svg width="21" height="19" viewBox="0 0 21 19" fill="none" xmlns="http://www.w3.org/2000/svg">
<path fill-rule="evenodd" clip-rule="evenodd" d="M14.1266 5.04401H19.0475V16.729H2.17358V5.04401H7.09558L8.06958 2.444H13.1616L14.1266 5.04401ZM13.3835 0.500004H8.06854C7.25751 0.499638 6.53137 1.0026 6.24658 1.762L5.74658 3.097H2.17358C1.09851 3.09755 0.227112 3.96894 0.226562 5.04401V16.729C0.227112 17.804 1.09845 18.6754 2.17352 18.676H19.0516C20.1266 18.6754 20.998 17.8041 20.9985 16.729V5.04401C20.9963 3.97007 20.1254 3.10053 19.0515 3.10001H15.4816L14.9016 1.558C14.6683 0.921314 14.0616 0.498539 13.3835 0.500004ZM10.6125 15.755C13.301 15.7533 15.4799 13.5744 15.4816 10.886C15.48 8.1977 13.301 6.01871 10.6127 6.017C7.92462 6.01917 5.74622 8.19797 5.74457 10.886C5.74615 13.5739 7.9245 15.7528 10.6125 15.755H10.6125ZM10.6125 7.965C12.2249 7.96721 13.5314 9.2737 13.5336 10.886C13.5314 12.4982 12.225 13.8048 10.6127 13.807C9.00031 13.8048 7.69379 12.4983 7.69159 10.886C7.69373 9.27378 9.00018 7.96726 10.6125 7.965H10.6125Z" fill="#777777"/>
</svg>
